# Blender 3.6.4
# www.blender.org
mtllib CollectorHighlight.mtl
o CollectorHighlight
v 0.000000 -0.500000 -0.750000
v 0.256515 -0.500000 -0.704769
v 0.482091 -0.500000 -0.574533
v 0.649519 -0.500000 -0.375000
v 0.738606 -0.500000 -0.130236
v 0.738606 -0.500000 0.130236
v 0.649519 -0.500000 0.375000
v 0.482091 -0.500000 0.574533
v 0.256515 -0.500000 0.704769
v 0.000000 -0.500000 0.750000
v -0.256515 -0.500000 0.704769
v -0.482091 -0.500000 0.574533
v -0.649519 -0.500000 0.375000
v -0.738606 -0.500000 0.130236
v -0.738606 -0.500000 -0.130236
v -0.649519 -0.500000 -0.375000
v -0.482091 -0.500000 -0.574533
v -0.256515 -0.500000 -0.704769
v 0.000000 -0.500000 -0.843750
v 0.288579 -0.500000 -0.792866
v 0.542352 -0.500000 -0.646350
v 0.730709 -0.500000 -0.421875
v 0.830932 -0.500000 -0.146516
v 0.830932 -0.500000 0.146516
v 0.730709 -0.500000 0.421875
v 0.542352 -0.500000 0.646350
v 0.288579 -0.500000 0.792866
v 0.000000 -0.500000 0.843750
v -0.288579 -0.500000 0.792866
v -0.542352 -0.500000 0.646350
v -0.730709 -0.500000 0.421875
v -0.830932 -0.500000 0.146516
v -0.830932 -0.500000 -0.146516
v -0.730709 -0.500000 -0.421875
v -0.542352 -0.500000 -0.646350
v -0.288579 -0.500000 -0.792866
vn -0.0000 -1.0000 -0.0000
vn -0.0000 1.0000 -0.0000
vt 0.750000 0.490000
vt 0.832085 0.475526
vt 0.904269 0.433851
vt 0.957846 0.370000
vt 0.986354 0.291676
vt 0.986354 0.208324
vt 0.957846 0.130000
vt 0.904269 0.066149
vt 0.832085 0.024474
vt 0.750000 0.010000
vt 0.667915 0.024474
vt 0.595731 0.066149
vt 0.542154 0.130000
vt 0.513646 0.208324
vt 0.513646 0.291676
vt 0.542154 0.370000
vt 0.595731 0.433851
vt 0.667915 0.475526
s 1
usemtl BlueGlow
f 19/1/1 20/2/1 21/3/1 22/4/1 23/5/1 24/6/1 25/7/1 26/8/1 27/9/1 28/10/1 29/11/1 30/12/1 31/13/1 32/14/1 33/15/1 34/16/1 35/17/1 36/18/1
f 17/17/2 18/18/2 36/18/2 35/17/2
f 10/10/2 11/11/2 29/11/2 28/10/2
f 3/3/2 4/4/2 22/4/2 21/3/2
f 18/18/2 1/1/2 19/1/2 36/18/2
f 11/11/2 12/12/2 30/12/2 29/11/2
f 4/4/2 5/5/2 23/5/2 22/4/2
f 12/12/2 13/13/2 31/13/2 30/12/2
f 5/5/2 6/6/2 24/6/2 23/5/2
f 13/13/2 14/14/2 32/14/2 31/13/2
f 6/6/2 7/7/2 25/7/2 24/6/2
f 14/14/2 15/15/2 33/15/2 32/14/2
f 7/7/2 8/8/2 26/8/2 25/7/2
f 15/15/2 16/16/2 34/16/2 33/15/2
f 8/8/2 9/9/2 27/9/2 26/8/2
f 1/1/2 2/2/2 20/2/2 19/1/2
f 16/16/2 17/17/2 35/17/2 34/16/2
f 9/9/2 10/10/2 28/10/2 27/9/2
f 2/2/2 3/3/2 21/3/2 20/2/2
